<svg width="1918" height="95" viewBox="0 0 1918 95" fill="none" xmlns="http://www.w3.org/2000/svg">
<rect x="-2" width="1920" height="95" fill="white"/>
<rect x="-1.5" y="0.5" width="1919" height="94" stroke="black" stroke-opacity="0.14"/>
<path d="M68.6239 25.7052L68.6234 25.7059C66.4683 28.3466 65.8454 32.2824 65.6916 39.6061L68.6239 25.7052ZM68.6239 25.7052C70.025 23.9854 71.8584 23.0835 74.6843 22.6169C77.5635 22.1415 81.3344 22.1384 86.5275 22.1384H97.4726C102.666 22.1384 106.437 22.1415 109.316 22.6169C112.142 23.0835 113.975 23.9854 115.376 25.705C117.527 28.3462 118.152 32.2798 118.303 39.6095L118.303 39.6124C118.314 40.0733 118 40.442 117.661 40.5501L117.658 40.5509C114.803 41.4695 112.885 44.5537 112.885 48V48.0008C112.886 49.661 113.334 51.2912 114.18 52.6371C115.027 53.9837 116.241 54.9917 117.663 55.4488C118.005 55.5604 118.318 55.9263 118.309 56.3934C118.155 63.7174 117.532 67.6532 115.377 70.2941L115.376 70.2951C113.976 72.0145 112.143 72.9165 109.317 73.383C106.437 73.8584 102.666 73.8616 97.4726 73.8616H86.5275C81.3344 73.8616 77.5635 73.8584 74.6843 73.383C71.8585 72.9165 70.0251 72.0146 68.6241 70.295C66.4735 67.6538 65.8481 63.7202 65.697 56.3904L65.697 56.3876C65.6861 55.9242 65.9991 55.5583 66.3391 55.4499L66.3416 55.4491C69.1973 54.5304 71.1152 51.4462 71.1152 48V47.9995M68.6239 25.7052L71.1152 47.9995M119.303 39.5889C119.325 40.519 118.702 41.2678 117.965 41.5028L119.303 39.5889ZM119.303 39.5889C119.153 32.3027 118.549 28.0183 116.151 25.0736L119.303 39.5889ZM71.1152 47.9995C71.1144 46.3391 70.6669 44.7085 69.8204 43.3623C68.9736 42.0156 67.7591 41.0077 66.3369 40.5511M71.1152 47.9995L66.3369 40.5511M66.3369 40.5511C65.9961 40.4397 65.6821 40.071 65.6916 39.6063L66.3369 40.5511Z" stroke="#059F68" stroke-width="2"/>
<path d="M93.2057 64.2966C93.2366 64.8986 94.1274 65.389 95.8781 65.7678C96.5043 65.9033 97.0892 66.2884 97.2263 66.9143C97.3321 67.397 97.3303 67.8721 97.2211 68.3394C97.0566 69.0431 96.3237 69.3995 95.6013 69.377C89.1863 69.1772 84.1447 69.1235 80.4766 69.2157C79.762 69.2337 79.032 68.8903 78.8677 68.1947C78.7682 67.7737 78.7638 67.3487 78.8544 66.9196C78.9879 66.287 79.5952 65.9121 80.2335 65.8088C82.6065 65.4246 83.809 64.9205 83.841 64.2966C83.9082 62.6335 83.9443 57.7747 83.9493 49.7204C83.95 48.6158 83.0447 47.7178 81.9401 47.7178C81.1333 47.7178 80.3607 47.2382 80.2247 46.443C80.1293 45.885 80.1282 45.3341 80.2213 44.7903C80.3546 44.0121 81.11 43.5527 81.8995 43.5527H82.2077C83.1699 43.5527 83.9499 42.7727 83.9499 41.8105C83.9499 37.2914 85.1205 33.4621 87.4617 30.3224C89.8029 27.1645 93.1422 25.5856 97.4797 25.5856C99.6757 25.5856 101.527 26.1663 103.033 27.3278C104.54 28.4712 105.293 29.9957 105.293 31.9013C105.293 33.1173 104.875 34.179 104.04 35.0864C103.206 35.9757 102.117 36.4203 100.774 36.4203C99.6666 36.4203 98.8046 36.139 98.1875 35.5764C97.5705 35.0138 97.2619 34.306 97.2619 33.453C97.2619 32.8187 97.3562 32.2787 97.5447 31.8329C97.855 31.0992 97.8362 30.116 97.0397 30.1053C96.9842 30.1045 96.9076 30.1092 96.8531 30.1196C95.7466 30.3324 94.8303 30.9081 94.1041 31.8469C93.36 32.8087 92.9879 34.0156 92.9879 35.4675V41.5527C92.9879 42.6573 93.8834 43.5527 94.9879 43.5527H97.2029C98.0129 43.5527 98.7809 44.0362 98.9174 44.8346C99.0134 45.3958 99.015 45.947 98.9222 46.4881C98.7895 47.2626 98.0365 47.7178 97.2507 47.7178H94.9879C93.8834 47.7178 92.9877 48.6154 92.9894 49.7199C93.0002 57.0694 93.0723 61.9283 93.2057 64.2966ZM96.9353 28.4984C98.7501 28.4984 100.057 28.8251 100.855 29.4785C101.654 30.1318 102.053 30.9031 102.053 31.7924C102.053 32.8622 101.734 33.5943 101.096 33.9885C100.833 34.1511 100.547 34.291 100.491 34.5951C100.393 35.1244 101.011 35.4955 101.532 35.3598C102.133 35.2033 102.669 34.8763 103.142 34.3786C103.832 33.6526 104.177 32.8269 104.177 31.9013C104.177 30.3405 103.532 29.0883 102.244 28.1445C100.973 27.1827 99.3853 26.7017 97.4797 26.7017C93.5052 26.7017 90.4381 28.1627 88.2784 31.0846C86.1368 34.0065 85.0661 37.5818 85.0661 41.8105V42.6689C85.0661 43.7734 84.1706 44.6689 83.0661 44.6689H82.3662C81.7723 44.6689 81.195 44.9826 81.187 45.5765C81.1786 46.2032 81.8045 46.6289 82.4312 46.6289H83.0661C84.1706 46.6289 85.0661 47.5262 85.0655 48.6308C85.0609 57.4374 85.0248 62.6775 84.9572 64.3511C84.9236 65.5937 83.6004 66.4323 80.9877 66.867C80.5753 66.9356 80.1317 67.2183 80.1252 67.6363C80.1185 68.0728 80.5899 68.2316 81.0261 68.2137C85.396 68.0346 90.12 68.0363 95.1981 68.2187C95.619 68.2338 96.064 68.0734 96.0641 67.6522C96.0643 67.2306 95.6184 66.9424 95.1993 66.8961C91.3447 66.4703 89.3916 65.622 89.3401 64.3511C89.2059 61.7359 89.1338 56.4959 89.1235 48.6311C89.1221 47.5266 90.0177 46.6289 91.1223 46.6289H96.5044C97.0984 46.6289 97.6757 46.3152 97.6837 45.7213C97.6921 45.0946 97.0662 44.6689 96.4395 44.6689H91.1223C90.0177 44.6689 89.1223 43.7734 89.1223 42.6689V36.747C89.1223 34.551 89.8845 32.6272 91.409 30.9757C92.9335 29.3242 94.7756 28.4984 96.9353 28.4984Z" fill="#059F68"/>
<path d="M105.956 30.1602L105.955 30.1582L105.749 29.7969L105.748 29.7949L105.734 29.7705C105.351 29.0919 105.036 28.5339 104.739 28.1509C104.435 27.7608 104.058 27.4305 103.523 27.4305C102.989 27.4305 102.612 27.7608 102.308 28.1507C102.011 28.5324 101.697 29.0881 101.314 29.7639L101.296 29.7964L101.296 29.7968L101.092 30.1585C101.092 30.1587 101.091 30.159 101.091 30.1593C100.842 30.5968 100.782 30.6818 100.709 30.7371C100.639 30.7891 100.546 30.8208 100.064 30.9273L100.064 30.9273L100.06 30.9281L99.6637 31.0187C99.6478 31.0222 99.6319 31.0257 99.6161 31.0293C98.8804 31.193 98.2716 31.3284 97.8273 31.5002C97.3657 31.6788 96.9496 31.9459 96.7888 32.4539L96.7886 32.4544C96.6295 32.9591 96.81 33.4203 97.0787 33.8406C97.3394 34.2483 97.755 34.7264 98.2593 35.3066L98.2863 35.3376L98.2867 35.338L98.5585 35.6514L98.5585 35.6515L98.5598 35.653C98.8903 36.0309 98.95 36.1132 98.9782 36.2036C99.008 36.2993 99.0058 36.4076 98.9578 36.9104C98.9578 36.9108 98.9578 36.9111 98.9577 36.9115L98.9161 37.3284L98.916 37.3293L98.912 37.3694C98.8358 38.1453 98.7732 38.7829 98.7953 39.2695C98.8178 39.7663 98.933 40.2535 99.3575 40.5702C99.7868 40.8905 100.284 40.8523 100.757 40.7188C101.216 40.5892 101.787 40.3302 102.479 40.017L102.516 40L102.518 39.9993L102.893 39.8307L102.894 39.8301C103.345 39.6259 103.437 39.5959 103.523 39.5959C103.608 39.5959 103.699 39.6258 104.153 39.8304L104.154 39.8307L104.529 39.9989L104.531 40L104.545 40.0066C105.246 40.3255 105.824 40.5888 106.289 40.7196C106.763 40.8532 107.259 40.8898 107.689 40.5708L107.689 40.5702C108.114 40.2535 108.229 39.7663 108.252 39.2695C108.274 38.7829 108.211 38.1453 108.135 37.3694L108.131 37.3293L108.131 37.3284L108.089 36.9093L108.089 36.9092C108.039 36.4062 108.038 36.3003 108.067 36.2079L108.068 36.205C108.097 36.1145 108.158 36.0269 108.485 35.653L108.486 35.6514L108.758 35.338L108.759 35.3376L108.785 35.3066C109.29 34.7264 109.705 34.2483 109.966 33.8406C110.235 33.4203 110.415 32.9591 110.256 32.4544L110.256 32.4539C110.095 31.9459 109.679 31.6788 109.218 31.5003C108.774 31.3286 108.167 31.1932 107.433 31.0297L107.384 31.0188L107.382 31.0184L106.984 30.928L106.984 30.928L106.981 30.9273C106.497 30.8204 106.408 30.7909 106.337 30.7376L106.336 30.7371C106.263 30.6823 106.203 30.5974 105.956 30.1602ZM108.381 35.01C109.436 33.796 109.964 33.1891 109.779 32.6048C109.596 32.0239 108.824 31.852 107.284 31.5088L107.273 31.5064L108.381 35.01Z" fill="white" stroke="#059F68"/>
<path d="M106.291 30.3815L106.29 30.3795L106.1 30.0395L106.099 30.0374L106.085 30.0127C105.733 29.3754 105.441 28.8486 105.165 28.4862C104.885 28.1185 104.526 27.7928 104.011 27.7928C103.495 27.7928 103.136 28.1184 102.856 28.4861C102.581 28.8472 102.29 29.3718 101.938 30.0064L101.92 30.039L101.92 30.0393L101.731 30.3806C101.499 30.7953 101.448 30.8681 101.387 30.9148C101.332 30.957 101.257 30.9852 100.808 31.0862L100.808 31.0862L100.805 31.0871L100.439 31.1723C100.423 31.1758 100.408 31.1794 100.392 31.1829C99.7162 31.3364 99.1515 31.4646 98.7384 31.6277C98.3058 31.7985 97.9114 32.0564 97.7597 32.5456L97.7595 32.5461C97.6101 33.0295 97.78 33.4703 98.0299 33.8691C98.2715 34.2548 98.6562 34.7064 99.1204 35.2513L99.1465 35.282L99.1469 35.2824L99.3976 35.5775L99.3976 35.5775L99.3989 35.579C99.7051 35.9363 99.7553 36.0089 99.7795 36.088C99.8055 36.1732 99.8044 36.2705 99.7599 36.7455C99.7599 36.7459 99.7598 36.7463 99.7598 36.7466L99.7214 37.1391L99.7213 37.1399L99.7175 37.179C99.6474 37.9084 99.5895 38.5099 99.6099 38.9694C99.6307 39.4371 99.7366 39.9064 100.14 40.2137L100.43 39.833L100.14 40.2137C100.552 40.5275 101.03 40.4878 101.471 40.3605C101.898 40.2375 102.428 39.9925 103.063 39.6988L103.101 39.6814L103.102 39.6807L103.448 39.522L103.45 39.5214C103.87 39.3273 103.943 39.3051 104.011 39.3051C104.076 39.3051 104.149 39.3272 104.572 39.5218L104.573 39.522L104.918 39.6803L104.921 39.6814L104.937 39.6891C105.581 39.988 106.117 40.2371 106.549 40.3613C106.992 40.4886 107.468 40.5269 107.88 40.2143L107.881 40.2137C108.285 39.9064 108.391 39.4371 108.411 38.9694C108.432 38.5099 108.374 37.9084 108.304 37.1791L108.3 37.1399L108.3 37.1391L108.261 36.7445L108.261 36.7444C108.215 36.2691 108.215 36.1742 108.241 36.0922L108.241 36.0893C108.266 36.01 108.318 35.9323 108.62 35.579L108.622 35.5775L108.873 35.2824L108.873 35.282L108.899 35.2513C109.363 34.7064 109.748 34.2548 109.99 33.8691C110.239 33.4703 110.409 33.0295 110.26 32.5461L110.26 32.5456C110.108 32.0564 109.714 31.7985 109.281 31.6277C108.869 31.4648 108.305 31.3366 107.631 31.1833L107.583 31.1725L107.581 31.172L107.214 31.0869L107.214 31.0869L107.211 31.0862C106.761 30.9848 106.69 30.9587 106.633 30.9154L106.633 30.9148C106.572 30.8686 106.52 30.7958 106.291 30.3815Z" fill="white" stroke="#059F68"/>
<path d="M148.384 36.8182V45.1989H126.845V36.8182H148.384ZM130.952 69V35.8963C130.952 33.2424 131.427 31.0425 132.377 29.2965C133.326 27.5505 134.667 26.2446 136.399 25.3785C138.131 24.5125 140.171 24.0795 142.517 24.0795C143.984 24.0795 145.408 24.1913 146.791 24.4148C148.188 24.6383 149.222 24.8338 149.892 25.0014L148.216 33.2983C147.797 33.1726 147.308 33.0748 146.749 33.005C146.191 32.9212 145.702 32.8793 145.283 32.8793C144.193 32.8793 143.46 33.1097 143.083 33.5707C142.706 34.0316 142.517 34.6392 142.517 35.3935V69H130.952ZM167.287 69.5866C163.851 69.5866 160.89 68.9302 158.404 67.6172C155.931 66.2902 154.025 64.3906 152.684 61.9183C151.357 59.4321 150.694 56.4569 150.694 52.9929C150.694 49.6686 151.364 46.7633 152.705 44.277C154.046 41.7907 155.938 39.8562 158.383 38.4734C160.827 37.0906 163.712 36.3991 167.036 36.3991C169.466 36.3991 171.666 36.7763 173.636 37.5305C175.605 38.2848 177.288 39.3813 178.685 40.82C180.082 42.2447 181.157 43.9767 181.912 46.016C182.666 48.0553 183.043 50.353 183.043 52.9091V55.5909H154.297V49.2216H172.4C172.386 48.2997 172.148 47.4896 171.687 46.7912C171.24 46.0788 170.633 45.5271 169.864 45.136C169.11 44.7309 168.251 44.5284 167.287 44.5284C166.351 44.5284 165.492 44.7309 164.71 45.136C163.928 45.5271 163.299 46.0719 162.825 46.7702C162.364 47.4686 162.119 48.2857 162.091 49.2216V56.0938C162.091 57.1274 162.308 58.0492 162.741 58.8594C163.174 59.6695 163.795 60.305 164.605 60.766C165.416 61.2269 166.393 61.4574 167.539 61.4574C168.335 61.4574 169.061 61.3456 169.718 61.1222C170.388 60.8987 170.961 60.5774 171.436 60.1584C171.911 59.7254 172.26 59.2086 172.483 58.608H183.043C182.68 60.8428 181.821 62.7843 180.466 64.4325C179.111 66.0668 177.316 67.3378 175.081 68.2457C172.86 69.1397 170.262 69.5866 167.287 69.5866ZM217.179 47.294H206.535C206.479 46.6375 206.249 46.0719 205.844 45.5969C205.439 45.122 204.915 44.7589 204.272 44.5075C203.644 44.2421 202.945 44.1094 202.177 44.1094C201.185 44.1094 200.333 44.291 199.621 44.6541C198.909 45.0173 198.559 45.5341 198.573 46.2045C198.559 46.6795 198.762 47.1194 199.181 47.5245C199.614 47.9296 200.445 48.2438 201.674 48.4673L208.211 49.6406C211.508 50.2412 213.959 51.2539 215.565 52.6786C217.186 54.0894 218.003 55.982 218.017 58.3565C218.003 60.6473 217.318 62.6377 215.963 64.3278C214.622 66.0039 212.786 67.3029 210.453 68.2248C208.134 69.1327 205.487 69.5866 202.512 69.5866C197.596 69.5866 193.748 68.581 190.968 66.5696C188.202 64.5582 186.659 61.9044 186.338 58.608H197.819C197.973 59.6276 198.476 60.4168 199.328 60.9755C200.194 61.5202 201.283 61.7926 202.596 61.7926C203.658 61.7926 204.531 61.611 205.215 61.2479C205.914 60.8847 206.27 60.3679 206.284 59.6974C206.27 59.0829 205.962 58.594 205.362 58.2308C204.775 57.8677 203.853 57.5743 202.596 57.3509L196.897 56.3452C193.615 55.7725 191.157 54.683 189.522 53.0767C187.888 51.4704 187.078 49.4032 187.092 46.875C187.078 44.6402 187.665 42.7475 188.852 41.1971C190.053 39.6327 191.764 38.4454 193.985 37.6353C196.22 36.8112 198.867 36.3991 201.926 36.3991C206.577 36.3991 210.244 37.3629 212.925 39.2905C215.621 41.218 217.039 43.8859 217.179 47.294ZM241.64 36.8182V45.1989H220.437V36.8182H241.64ZM224.543 29.108H236.108V58.6499C236.108 59.0968 236.185 59.474 236.339 59.7812C236.493 60.0746 236.73 60.2981 237.051 60.4517C237.372 60.5914 237.785 60.6612 238.287 60.6612C238.637 60.6612 239.042 60.6193 239.503 60.5355C239.977 60.4517 240.327 60.3819 240.55 60.326L242.226 68.4553C241.709 68.6089 240.969 68.7975 240.005 69.021C239.056 69.2444 237.924 69.3911 236.611 69.4609C233.957 69.6006 231.729 69.3282 229.928 68.6438C228.126 67.9454 226.771 66.849 225.863 65.3544C224.955 63.8598 224.515 61.9882 224.543 59.7393V29.108ZM246.359 69V36.8182H257.924V69H246.359ZM252.142 33.4659C250.577 33.4659 249.236 32.9491 248.119 31.9155C247.002 30.8819 246.443 29.6387 246.443 28.1861C246.443 26.7334 247.002 25.4903 248.119 24.4567C249.236 23.4231 250.577 22.9062 252.142 22.9062C253.72 22.9062 255.061 23.4231 256.164 24.4567C257.282 25.4903 257.841 26.7334 257.841 28.1861C257.841 29.6387 257.282 30.8819 256.164 31.9155C255.061 32.9491 253.72 33.4659 252.142 33.4659ZM296.25 36.8182L285.439 69H272.03L261.219 36.8182H273.371L278.567 58.1051H278.902L284.098 36.8182H296.25Z" fill="#059F68"/>
<path d="M300.825 69.3068C300.084 69.3068 299.448 69.0479 298.917 68.5302C298.393 68.006 298.134 67.37 298.141 66.6222C298.134 65.8935 298.393 65.2702 298.917 64.7525C299.448 64.2347 300.084 63.9759 300.825 63.9759C301.528 63.9759 302.148 64.2347 302.685 64.7525C303.229 65.2702 303.503 65.8935 303.51 66.6222C303.503 67.1207 303.372 67.5746 303.117 67.9837C302.867 68.3864 302.541 68.7092 302.139 68.9521C301.736 69.1886 301.298 69.3068 300.825 69.3068ZM313.443 69.2685C311.871 69.2685 310.516 68.968 309.378 68.3672C308.246 67.7599 307.374 66.8906 306.76 65.7592C306.153 64.6214 305.849 63.2599 305.849 61.6747C305.849 60.1534 306.156 58.8239 306.77 57.6861C307.383 56.5483 308.25 55.663 309.368 55.0302C310.487 54.3974 311.807 54.081 313.328 54.081C314.44 54.081 315.447 54.2536 316.348 54.5987C317.25 54.9439 318.02 55.4457 318.659 56.104C319.298 56.756 319.79 57.5487 320.136 58.4819C320.481 59.4151 320.653 60.4666 320.653 61.6364V62.8636H307.498V59.9489H315.783C315.776 59.527 315.668 59.1562 315.457 58.8366C315.252 58.5107 314.974 58.2582 314.622 58.0792C314.277 57.8938 313.884 57.8011 313.443 57.8011C313.015 57.8011 312.622 57.8938 312.264 58.0792C311.906 58.2582 311.618 58.5075 311.401 58.8271C311.19 59.1467 311.078 59.5206 311.065 59.9489V63.0938C311.065 63.5668 311.164 63.9886 311.362 64.3594C311.561 64.7301 311.845 65.021 312.216 65.2319C312.587 65.4428 313.034 65.5483 313.558 65.5483C313.922 65.5483 314.255 65.4972 314.555 65.3949C314.862 65.2926 315.124 65.1456 315.342 64.9538C315.559 64.7557 315.719 64.5192 315.821 64.2443H320.653C320.487 65.267 320.094 66.1555 319.474 66.9098C318.854 67.6577 318.033 68.2393 317.01 68.6548C315.994 69.0639 314.805 69.2685 313.443 69.2685ZM337.286 54.2727L332.339 69H326.202L321.255 54.2727H326.816L329.194 64.0142H329.347L331.725 54.2727H337.286ZM345.4 69.2685C343.828 69.2685 342.473 68.968 341.335 68.3672C340.203 67.7599 339.331 66.8906 338.717 65.7592C338.11 64.6214 337.806 63.2599 337.806 61.6747C337.806 60.1534 338.113 58.8239 338.727 57.6861C339.34 56.5483 340.207 55.663 341.325 55.0302C342.444 54.3974 343.764 54.081 345.285 54.081C346.397 54.081 347.404 54.2536 348.305 54.5987C349.207 54.9439 349.977 55.4457 350.616 56.104C351.255 56.756 351.747 57.5487 352.093 58.4819C352.438 59.4151 352.61 60.4666 352.61 61.6364V62.8636H339.456V59.9489H347.74C347.733 59.527 347.625 59.1562 347.414 58.8366C347.209 58.5107 346.931 58.2582 346.579 58.0792C346.234 57.8938 345.841 57.8011 345.4 57.8011C344.972 57.8011 344.579 57.8938 344.221 58.0792C343.863 58.2582 343.575 58.5075 343.358 58.8271C343.147 59.1467 343.035 59.5206 343.022 59.9489V63.0938C343.022 63.5668 343.121 63.9886 343.32 64.3594C343.518 64.7301 343.802 65.021 344.173 65.2319C344.544 65.4428 344.991 65.5483 345.515 65.5483C345.88 65.5483 346.212 65.4972 346.512 65.3949C346.819 65.2926 347.081 65.1456 347.299 64.9538C347.516 64.7557 347.676 64.5192 347.778 64.2443H352.61C352.444 65.267 352.051 66.1555 351.431 66.9098C350.811 67.6577 349.99 68.2393 348.967 68.6548C347.951 69.0639 346.762 69.2685 345.4 69.2685ZM360.063 60.7159V69H354.77V54.2727H359.794V57.0724H359.948C360.267 56.1392 360.83 55.4073 361.635 54.8768C362.447 54.3462 363.393 54.081 364.473 54.081C365.515 54.081 366.42 54.3207 367.187 54.8001C367.96 55.2731 368.558 55.9251 368.98 56.756C369.408 57.587 369.619 58.5362 369.612 59.6037V69H364.32V60.7159C364.326 59.9872 364.141 59.4151 363.764 58.9996C363.393 58.5842 362.875 58.3764 362.21 58.3764C361.776 58.3764 361.395 58.4723 361.069 58.6641C360.75 58.8494 360.504 59.1179 360.331 59.4695C360.159 59.8146 360.069 60.2301 360.063 60.7159ZM381.008 54.2727V58.108H371.305V54.2727H381.008ZM373.184 50.7443H378.477V64.2635C378.477 64.468 378.512 64.6406 378.582 64.7812C378.652 64.9155 378.761 65.0178 378.908 65.0881C379.055 65.152 379.244 65.1839 379.474 65.1839C379.634 65.1839 379.819 65.1648 380.03 65.1264C380.247 65.0881 380.407 65.0561 380.509 65.0305L381.276 68.7507C381.04 68.821 380.701 68.9073 380.26 69.0096C379.825 69.1119 379.308 69.179 378.707 69.2109C377.492 69.2749 376.473 69.1502 375.648 68.837C374.824 68.5174 374.203 68.0156 373.788 67.3317C373.373 66.6477 373.171 65.7912 373.184 64.7621V50.7443Z" fill="#002B1C" fill-opacity="0.24"/>
<path d="M1608 47.5C1608 34.7975 1618.3 24.5 1631 24.5H1837C1849.7 24.5 1860 34.7975 1860 47.5C1860 60.2025 1849.7 70.5 1837 70.5H1631C1618.3 70.5 1608 60.2025 1608 47.5Z" fill="#F5F4F4"/>
<path d="M1641.1 44.2308H1638.33C1638.22 43.639 1638.02 43.1181 1637.73 42.6683C1637.44 42.2185 1637.09 41.8368 1636.67 41.5231C1636.25 41.2094 1635.78 40.9727 1635.26 40.8129C1634.74 40.6531 1634.19 40.5732 1633.61 40.5732C1632.57 40.5732 1631.63 40.8365 1630.8 41.3633C1629.98 41.89 1629.33 42.6624 1628.85 43.6804C1628.37 44.6984 1628.14 45.9413 1628.14 47.4091C1628.14 48.8887 1628.37 50.1375 1628.85 51.1555C1629.33 52.1735 1629.98 52.9429 1630.81 53.4638C1631.64 53.9846 1632.57 54.245 1633.61 54.245C1634.18 54.245 1634.72 54.1681 1635.24 54.0142C1635.76 53.8544 1636.23 53.6206 1636.65 53.3129C1637.07 53.0051 1637.43 52.6293 1637.72 52.1854C1638.01 51.7356 1638.22 51.2206 1638.33 50.6406L1641.1 50.6495C1640.95 51.5432 1640.66 52.3659 1640.24 53.1175C1639.82 53.8633 1639.28 54.5084 1638.61 55.0529C1637.96 55.5915 1637.2 56.0088 1636.36 56.3047C1635.51 56.6006 1634.59 56.7486 1633.59 56.7486C1632.01 56.7486 1630.61 56.3757 1629.38 55.63C1628.15 54.8783 1627.18 53.8041 1626.47 52.4073C1625.76 51.0105 1625.41 49.3445 1625.41 47.4091C1625.41 45.4678 1625.77 43.8017 1626.48 42.4109C1627.19 41.0141 1628.16 39.9428 1629.39 39.1971C1630.62 38.4454 1632.02 38.0696 1633.59 38.0696C1634.55 38.0696 1635.45 38.2087 1636.29 38.4869C1637.13 38.7591 1637.88 39.1616 1638.55 39.6942C1639.22 40.221 1639.77 40.8661 1640.21 41.6296C1640.65 42.3872 1640.94 43.2543 1641.1 44.2308ZM1644.17 56.5V42.8636H1646.73V45.0298H1646.88C1647.12 44.2959 1647.56 43.7189 1648.19 43.2987C1648.82 42.8725 1649.54 42.6594 1650.34 42.6594C1650.5 42.6594 1650.7 42.6654 1650.92 42.6772C1651.16 42.689 1651.34 42.7038 1651.47 42.7216V45.2607C1651.36 45.2311 1651.17 45.1985 1650.9 45.163C1650.63 45.1216 1650.35 45.1009 1650.08 45.1009C1649.45 45.1009 1648.89 45.234 1648.4 45.5004C1647.92 45.7608 1647.53 46.1248 1647.25 46.5923C1646.96 47.054 1646.82 47.5807 1646.82 48.1726V56.5H1644.17ZM1659.15 56.7752C1657.81 56.7752 1656.65 56.4882 1655.68 55.9141C1654.72 55.334 1653.97 54.5202 1653.44 53.4727C1652.92 52.4192 1652.66 51.1851 1652.66 49.7706C1652.66 48.3738 1652.92 47.1428 1653.44 46.0774C1653.97 45.0121 1654.7 44.1805 1655.65 43.5827C1656.59 42.985 1657.7 42.6861 1658.97 42.6861C1659.73 42.6861 1660.48 42.8133 1661.2 43.0678C1661.92 43.3223 1662.57 43.7218 1663.15 44.2663C1663.72 44.8108 1664.17 45.5181 1664.51 46.3881C1664.84 47.2522 1665 48.3028 1665 49.5398V50.4808H1654.16V48.4922H1662.4C1662.4 47.7938 1662.26 47.1753 1661.97 46.6367C1661.69 46.0922 1661.29 45.6631 1660.78 45.3494C1660.27 45.0357 1659.67 44.8789 1658.98 44.8789C1658.24 44.8789 1657.59 45.0624 1657.03 45.4293C1656.48 45.7904 1656.05 46.2638 1655.75 46.8498C1655.46 47.4298 1655.31 48.0601 1655.31 48.7408V50.2944C1655.31 51.2058 1655.47 51.9812 1655.79 52.6204C1656.11 53.2596 1656.57 53.7479 1657.15 54.0852C1657.73 54.4167 1658.4 54.5824 1659.18 54.5824C1659.68 54.5824 1660.14 54.5114 1660.55 54.3693C1660.97 54.2214 1661.33 54.0024 1661.63 53.7124C1661.93 53.4223 1662.16 53.0643 1662.32 52.6381L1664.83 53.0909C1664.63 53.8307 1664.27 54.4788 1663.75 55.0352C1663.24 55.5856 1662.59 56.0147 1661.81 56.3224C1661.03 56.6243 1660.15 56.7752 1659.15 56.7752ZM1671.92 56.8018C1671.05 56.8018 1670.27 56.642 1669.57 56.3224C1668.87 55.9969 1668.32 55.5264 1667.91 54.9109C1667.51 54.2953 1667.31 53.5407 1667.31 52.647C1667.31 51.8776 1667.46 51.2443 1667.75 50.7472C1668.05 50.25 1668.45 49.8564 1668.95 49.5664C1669.45 49.2764 1670.02 49.0574 1670.64 48.9094C1671.26 48.7615 1671.89 48.649 1672.54 48.5721C1673.35 48.4774 1674.02 48.4004 1674.53 48.3413C1675.04 48.2762 1675.4 48.1726 1675.64 48.0305C1675.87 47.8885 1675.98 47.6577 1675.98 47.3381V47.2759C1675.98 46.5006 1675.76 45.8999 1675.33 45.4737C1674.89 45.0476 1674.25 44.8345 1673.39 44.8345C1672.5 44.8345 1671.79 45.0328 1671.28 45.4293C1670.77 45.82 1670.42 46.255 1670.22 46.7344L1667.73 46.1662C1668.02 45.3376 1668.45 44.6688 1669.02 44.1598C1669.6 43.6449 1670.26 43.272 1671 43.0412C1671.75 42.8045 1672.53 42.6861 1673.35 42.6861C1673.9 42.6861 1674.48 42.7512 1675.09 42.8814C1675.7 43.0057 1676.27 43.2365 1676.81 43.5739C1677.35 43.9112 1677.79 44.3936 1678.13 45.021C1678.47 45.6424 1678.65 46.4503 1678.65 47.4446V56.5H1676.05V54.6357H1675.95C1675.77 54.9789 1675.52 55.3163 1675.17 55.6477C1674.83 55.9792 1674.39 56.2544 1673.85 56.4734C1673.31 56.6924 1672.67 56.8018 1671.92 56.8018ZM1672.49 54.6712C1673.23 54.6712 1673.85 54.5262 1674.38 54.2362C1674.9 53.9461 1675.3 53.5674 1675.57 53.0998C1675.85 52.6263 1675.99 52.1203 1675.99 51.5817V49.8239C1675.9 49.9186 1675.71 50.0073 1675.44 50.0902C1675.17 50.1671 1674.87 50.2352 1674.53 50.2944C1674.18 50.3477 1673.85 50.398 1673.52 50.4453C1673.2 50.4867 1672.93 50.5223 1672.71 50.5518C1672.19 50.617 1671.72 50.7264 1671.29 50.8803C1670.87 51.0342 1670.54 51.2562 1670.28 51.5462C1670.03 51.8303 1669.91 52.209 1669.91 52.6825C1669.91 53.3395 1670.15 53.8366 1670.64 54.174C1671.12 54.5054 1671.74 54.6712 1672.49 54.6712ZM1688.55 42.8636V44.9943H1681.1V42.8636H1688.55ZM1683.1 39.5966H1685.75V52.4961C1685.75 53.011 1685.83 53.3987 1685.98 53.6591C1686.13 53.9136 1686.33 54.0882 1686.58 54.1829C1686.82 54.2717 1687.09 54.3161 1687.38 54.3161C1687.6 54.3161 1687.78 54.3013 1687.94 54.2717C1688.1 54.2421 1688.23 54.2184 1688.32 54.2006L1688.79 56.3935C1688.64 56.4527 1688.42 56.5118 1688.14 56.571C1687.85 56.6361 1687.5 56.6716 1687.07 56.6776C1686.37 56.6894 1685.72 56.5651 1685.12 56.3047C1684.52 56.0443 1684.03 55.6418 1683.65 55.0973C1683.28 54.5528 1683.1 53.8692 1683.1 53.0465V39.5966ZM1697.21 56.7752C1695.87 56.7752 1694.71 56.4882 1693.74 55.9141C1692.78 55.334 1692.03 54.5202 1691.5 53.4727C1690.98 52.4192 1690.72 51.1851 1690.72 49.7706C1690.72 48.3738 1690.98 47.1428 1691.5 46.0774C1692.03 45.0121 1692.77 44.1805 1693.71 43.5827C1694.65 42.985 1695.76 42.6861 1697.03 42.6861C1697.8 42.6861 1698.54 42.8133 1699.26 43.0678C1699.99 43.3223 1700.63 43.7218 1701.21 44.2663C1701.78 44.8108 1702.24 45.5181 1702.57 46.3881C1702.9 47.2522 1703.06 48.3028 1703.06 49.5398V50.4808H1692.22V48.4922H1700.46C1700.46 47.7938 1700.32 47.1753 1700.04 46.6367C1699.75 46.0922 1699.35 45.6631 1698.84 45.3494C1698.33 45.0357 1697.73 44.8789 1697.04 44.8789C1696.3 44.8789 1695.65 45.0624 1695.09 45.4293C1694.54 45.7904 1694.11 46.2638 1693.81 46.8498C1693.52 47.4298 1693.37 48.0601 1693.37 48.7408V50.2944C1693.37 51.2058 1693.53 51.9812 1693.85 52.6204C1694.17 53.2596 1694.63 53.7479 1695.21 54.0852C1695.79 54.4167 1696.46 54.5824 1697.24 54.5824C1697.74 54.5824 1698.2 54.5114 1698.62 54.3693C1699.03 54.2214 1699.39 54.0024 1699.69 53.7124C1699.99 53.4223 1700.22 53.0643 1700.38 52.6381L1702.9 53.0909C1702.69 53.8307 1702.33 54.4788 1701.81 55.0352C1701.3 55.5856 1700.65 56.0147 1699.87 56.3224C1699.09 56.6243 1698.21 56.7752 1697.21 56.7752ZM1716.59 56.8018C1715.73 56.8018 1714.95 56.642 1714.25 56.3224C1713.55 55.9969 1713 55.5264 1712.59 54.9109C1712.19 54.2953 1711.99 53.5407 1711.99 52.647C1711.99 51.8776 1712.13 51.2443 1712.43 50.7472C1712.73 50.25 1713.13 49.8564 1713.63 49.5664C1714.13 49.2764 1714.69 49.0574 1715.32 48.9094C1715.94 48.7615 1716.57 48.649 1717.22 48.5721C1718.03 48.4774 1718.69 48.4004 1719.2 48.3413C1719.71 48.2762 1720.08 48.1726 1720.31 48.0305C1720.54 47.8885 1720.66 47.6577 1720.66 47.3381V47.2759C1720.66 46.5006 1720.44 45.8999 1720 45.4737C1719.57 45.0476 1718.93 44.8345 1718.07 44.8345C1717.17 44.8345 1716.47 45.0328 1715.95 45.4293C1715.45 45.82 1715.09 46.255 1714.9 46.7344L1712.4 46.1662C1712.7 45.3376 1713.13 44.6688 1713.7 44.1598C1714.27 43.6449 1714.93 43.272 1715.68 43.0412C1716.42 42.8045 1717.21 42.6861 1718.03 42.6861C1718.58 42.6861 1719.15 42.7512 1719.76 42.8814C1720.38 43.0057 1720.95 43.2365 1721.49 43.5739C1722.02 43.9112 1722.46 44.3936 1722.81 45.021C1723.15 45.6424 1723.32 46.4503 1723.32 47.4446V56.5H1720.73V54.6357H1720.62C1720.45 54.9789 1720.2 55.3163 1719.85 55.6477C1719.51 55.9792 1719.07 56.2544 1718.53 56.4734C1717.99 56.6924 1717.35 56.8018 1716.59 56.8018ZM1717.17 54.6712C1717.9 54.6712 1718.53 54.5262 1719.05 54.2362C1719.58 53.9461 1719.98 53.5674 1720.25 53.0998C1720.53 52.6263 1720.67 52.1203 1720.67 51.5817V49.8239C1720.57 49.9186 1720.39 50.0073 1720.12 50.0902C1719.85 50.1671 1719.55 50.2352 1719.2 50.2944C1718.86 50.3477 1718.53 50.398 1718.2 50.4453C1717.88 50.4867 1717.6 50.5223 1717.38 50.5518C1716.87 50.617 1716.4 50.7264 1715.97 50.8803C1715.55 51.0342 1715.21 51.2562 1714.96 51.5462C1714.71 51.8303 1714.59 52.209 1714.59 52.6825C1714.59 53.3395 1714.83 53.8366 1715.32 54.174C1715.8 54.5054 1716.42 54.6712 1717.17 54.6712ZM1729.51 48.4034V56.5H1726.86V42.8636H1729.41V45.0831H1729.58C1729.89 44.361 1730.38 43.781 1731.05 43.343C1731.72 42.9051 1732.57 42.6861 1733.6 42.6861C1734.53 42.6861 1735.34 42.8814 1736.04 43.272C1736.74 43.6567 1737.28 44.2308 1737.66 44.9943C1738.05 45.7578 1738.24 46.7018 1738.24 47.8263V56.5H1735.59V48.146C1735.59 47.1576 1735.33 46.3852 1734.81 45.8288C1734.3 45.2666 1733.59 44.9854 1732.69 44.9854C1732.08 44.9854 1731.53 45.1186 1731.05 45.3849C1730.58 45.6513 1730.2 46.0419 1729.92 46.5568C1729.65 47.0658 1729.51 47.6813 1729.51 48.4034ZM1752.38 56.8018C1751.52 56.8018 1750.74 56.642 1750.04 56.3224C1749.34 55.9969 1748.79 55.5264 1748.38 54.9109C1747.98 54.2953 1747.78 53.5407 1747.78 52.647C1747.78 51.8776 1747.93 51.2443 1748.22 50.7472C1748.52 50.25 1748.92 49.8564 1749.42 49.5664C1749.92 49.2764 1750.48 49.0574 1751.11 48.9094C1751.73 48.7615 1752.36 48.649 1753.01 48.5721C1753.82 48.4774 1754.49 48.4004 1754.99 48.3413C1755.5 48.2762 1755.87 48.1726 1756.1 48.0305C1756.34 47.8885 1756.45 47.6577 1756.45 47.3381V47.2759C1756.45 46.5006 1756.23 45.8999 1755.79 45.4737C1755.36 45.0476 1754.72 44.8345 1753.86 44.8345C1752.96 44.8345 1752.26 45.0328 1751.75 45.4293C1751.24 45.82 1750.88 46.255 1750.69 46.7344L1748.19 46.1662C1748.49 45.3376 1748.92 44.6688 1749.49 44.1598C1750.06 43.6449 1750.72 43.272 1751.47 43.0412C1752.22 42.8045 1753 42.6861 1753.82 42.6861C1754.37 42.6861 1754.94 42.7512 1755.55 42.8814C1756.17 43.0057 1756.74 43.2365 1757.28 43.5739C1757.81 43.9112 1758.26 44.3936 1758.6 45.021C1758.94 45.6424 1759.11 46.4503 1759.11 47.4446V56.5H1756.52V54.6357H1756.42C1756.24 54.9789 1755.99 55.3163 1755.64 55.6477C1755.3 55.9792 1754.86 56.2544 1754.32 56.4734C1753.78 56.6924 1753.14 56.8018 1752.38 56.8018ZM1752.96 54.6712C1753.7 54.6712 1754.32 54.5262 1754.84 54.2362C1755.37 53.9461 1755.77 53.5674 1756.04 53.0998C1756.32 52.6263 1756.46 52.1203 1756.46 51.5817V49.8239C1756.36 49.9186 1756.18 50.0073 1755.91 50.0902C1755.64 50.1671 1755.34 50.2352 1754.99 50.2944C1754.65 50.3477 1754.32 50.398 1753.99 50.4453C1753.67 50.4867 1753.39 50.5223 1753.17 50.5518C1752.66 50.617 1752.19 50.7264 1751.76 50.8803C1751.34 51.0342 1751.01 51.2562 1750.75 51.5462C1750.5 51.8303 1750.38 52.209 1750.38 52.6825C1750.38 53.3395 1750.62 53.8366 1751.11 54.174C1751.59 54.5054 1752.21 54.6712 1752.96 54.6712ZM1768.39 56.7752C1767.07 56.7752 1765.94 56.4763 1764.98 55.8786C1764.04 55.2749 1763.31 54.4433 1762.8 53.3839C1762.29 52.3245 1762.04 51.1112 1762.04 49.744C1762.04 48.359 1762.3 47.1368 1762.82 46.0774C1763.34 45.0121 1764.07 44.1805 1765.02 43.5827C1765.97 42.985 1767.08 42.6861 1768.37 42.6861C1769.4 42.6861 1770.33 42.8784 1771.14 43.2631C1771.95 43.6419 1772.6 44.1746 1773.1 44.8612C1773.6 45.5477 1773.9 46.3497 1774 47.267H1771.41C1771.27 46.6278 1770.94 46.0774 1770.44 45.6158C1769.93 45.1541 1769.26 44.9233 1768.41 44.9233C1767.67 44.9233 1767.02 45.1186 1766.47 45.5092C1765.92 45.8939 1765.49 46.4444 1765.18 47.1605C1764.87 47.8707 1764.72 48.7112 1764.72 49.6818C1764.72 50.6761 1764.87 51.5343 1765.17 52.2564C1765.47 52.9785 1765.9 53.5378 1766.45 53.9343C1767.01 54.3308 1767.66 54.5291 1768.41 54.5291C1768.91 54.5291 1769.37 54.4374 1769.78 54.2539C1770.19 54.0645 1770.54 53.7952 1770.82 53.446C1771.1 53.0968 1771.3 52.6766 1771.41 52.1854H1774C1773.9 53.0672 1773.61 53.8544 1773.13 54.5469C1772.66 55.2393 1772.01 55.7839 1771.21 56.1804C1770.41 56.5769 1769.47 56.7752 1768.39 56.7752ZM1782.58 56.7752C1781.26 56.7752 1780.12 56.4763 1779.17 55.8786C1778.22 55.2749 1777.49 54.4433 1776.99 53.3839C1776.48 52.3245 1776.22 51.1112 1776.22 49.744C1776.22 48.359 1776.48 47.1368 1777 46.0774C1777.52 45.0121 1778.26 44.1805 1779.2 43.5827C1780.15 42.985 1781.27 42.6861 1782.55 42.6861C1783.59 42.6861 1784.51 42.8784 1785.32 43.2631C1786.13 43.6419 1786.79 44.1746 1787.28 44.8612C1787.79 45.5477 1788.09 46.3497 1788.18 47.267H1785.6C1785.45 46.6278 1785.13 46.0774 1784.62 45.6158C1784.12 45.1541 1783.44 44.9233 1782.6 44.9233C1781.86 44.9233 1781.21 45.1186 1780.65 45.5092C1780.1 45.8939 1779.67 46.4444 1779.36 47.1605C1779.06 47.8707 1778.9 48.7112 1778.9 49.6818C1778.9 50.6761 1779.05 51.5343 1779.36 52.2564C1779.66 52.9785 1780.08 53.5378 1780.63 53.9343C1781.19 54.3308 1781.84 54.5291 1782.6 54.5291C1783.1 54.5291 1783.55 54.4374 1783.96 54.2539C1784.38 54.0645 1784.72 53.7952 1785 53.446C1785.29 53.0968 1785.48 52.6766 1785.6 52.1854H1788.18C1788.09 53.0672 1787.8 53.8544 1787.32 54.5469C1786.84 55.2393 1786.2 55.7839 1785.39 56.1804C1784.59 56.5769 1783.66 56.7752 1782.58 56.7752ZM1796.76 56.7752C1795.48 56.7752 1794.37 56.4822 1793.42 55.8963C1792.46 55.3104 1791.72 54.4906 1791.2 53.4371C1790.67 52.3836 1790.41 51.1526 1790.41 49.744C1790.41 48.3294 1790.67 47.0924 1791.2 46.033C1791.72 44.9736 1792.46 44.1509 1793.42 43.565C1794.37 42.979 1795.48 42.6861 1796.76 42.6861C1798.04 42.6861 1799.16 42.979 1800.11 43.565C1801.06 44.1509 1801.8 44.9736 1802.33 46.033C1802.86 47.0924 1803.12 48.3294 1803.12 49.744C1803.12 51.1526 1802.86 52.3836 1802.33 53.4371C1801.8 54.4906 1801.06 55.3104 1800.11 55.8963C1799.16 56.4822 1798.04 56.7752 1796.76 56.7752ZM1796.77 54.5469C1797.6 54.5469 1798.29 54.3279 1798.83 53.8899C1799.38 53.4519 1799.78 52.869 1800.04 52.141C1800.31 51.413 1800.44 50.611 1800.44 49.7351C1800.44 48.8651 1800.31 48.0661 1800.04 47.3381C1799.78 46.6042 1799.38 46.0153 1798.83 45.5714C1798.29 45.1275 1797.6 44.9055 1796.77 44.9055C1795.94 44.9055 1795.24 45.1275 1794.69 45.5714C1794.15 46.0153 1793.74 46.6042 1793.48 47.3381C1793.22 48.0661 1793.09 48.8651 1793.09 49.7351C1793.09 50.611 1793.22 51.413 1793.48 52.141C1793.74 52.869 1794.15 53.4519 1794.69 53.8899C1795.24 54.3279 1795.94 54.5469 1796.77 54.5469ZM1814.72 50.8448V42.8636H1817.38V56.5H1814.77V54.1385H1814.63C1814.32 54.8665 1813.81 55.4731 1813.12 55.9585C1812.44 56.4379 1811.58 56.6776 1810.56 56.6776C1809.68 56.6776 1808.91 56.4852 1808.23 56.1005C1807.56 55.7099 1807.04 55.1328 1806.65 54.3693C1806.27 53.6058 1806.08 52.6618 1806.08 51.5373V42.8636H1808.74V51.2177C1808.74 52.1469 1808.99 52.8867 1809.51 53.4371C1810.02 53.9876 1810.69 54.2628 1811.52 54.2628C1812.01 54.2628 1812.51 54.1385 1813 53.8899C1813.5 53.6413 1813.91 53.2655 1814.23 52.7624C1814.56 52.2594 1814.73 51.6201 1814.72 50.8448ZM1823.6 48.4034V56.5H1820.95V42.8636H1823.5V45.0831H1823.67C1823.98 44.361 1824.47 43.781 1825.14 43.343C1825.82 42.9051 1826.66 42.6861 1827.69 42.6861C1828.62 42.6861 1829.43 42.8814 1830.13 43.272C1830.83 43.6567 1831.37 44.2308 1831.75 44.9943C1832.14 45.7578 1832.33 46.7018 1832.33 47.8263V56.5H1829.68V48.146C1829.68 47.1576 1829.42 46.3852 1828.91 45.8288C1828.39 45.2666 1827.68 44.9854 1826.78 44.9854C1826.17 44.9854 1825.62 45.1186 1825.14 45.3849C1824.67 45.6513 1824.29 46.0419 1824.01 46.5568C1823.74 47.0658 1823.6 47.6813 1823.6 48.4034ZM1842.26 42.8636V44.9943H1834.81V42.8636H1842.26ZM1836.81 39.5966H1839.46V52.4961C1839.46 53.011 1839.54 53.3987 1839.69 53.6591C1839.85 53.9136 1840.04 54.0882 1840.29 54.1829C1840.53 54.2717 1840.8 54.3161 1841.09 54.3161C1841.31 54.3161 1841.49 54.3013 1841.65 54.2717C1841.81 54.2421 1841.94 54.2184 1842.03 54.2006L1842.51 56.3935C1842.35 56.4527 1842.13 56.5118 1841.85 56.571C1841.56 56.6361 1841.21 56.6716 1840.78 56.6776C1840.09 56.6894 1839.43 56.5651 1838.83 56.3047C1838.23 56.0443 1837.74 55.6418 1837.37 55.0973C1836.99 54.5528 1836.81 53.8692 1836.81 53.0465V39.5966Z" fill="#022543"/>
</svg>
